<svg xmlns="http://www.w3.org/2000/svg" xmlns:xlink="http://www.w3.org/1999/xlink" width="500" zoomAndPan="magnify" viewBox="0 0 375 374.999991" height="500" preserveAspectRatio="xMidYMid meet" version="1.0"><defs><clipPath id="7563f093cc"><path d="M 32.148438 65 L 342.648438 65 L 342.648438 332.101562 L 32.148438 332.101562 Z M 32.148438 65 " clip-rule="nonzero"/></clipPath></defs><g clip-path="url(#7563f093cc)"><path fill="#ffffff" d="M 187.390625 65.824219 L 306.996094 111.242188 L 179.539062 157.066406 L 65.992188 111.957031 Z M 49.886719 121.054688 L 169.207031 168.460938 L 152.585938 199.042969 L 32.242188 152.765625 Z M 52.257812 177.695312 L 150.992188 214.761719 C 151.828125 215.089844 153.886719 215.234375 154.738281 215.234375 C 157.320312 215.234375 162.421875 213.851562 163.714844 211.484375 L 176.375 193.121094 L 176.375 331.757812 L 52.257812 284.375 Z M 310.835938 284.15625 L 186.71875 332.140625 L 186.71875 187.742188 L 205.65625 214.976562 C 207.019531 216.953125 209.246094 218.070312 211.539062 218.070312 C 212.421875 218.070312 210.496094 217.925781 211.332031 217.605469 L 310.8125 178.273438 Z M 214.210938 202.105469 L 190.71875 168.359375 L 324.496094 120.289062 L 342.566406 152.765625 Z M 214.210938 202.105469 " fill-opacity="1" fill-rule="nonzero"/></g></svg>